<?xml version="1.0" standalone="no"?>
<!DOCTYPE svg PUBLIC "-//W3C//DTD SVG 20010904//EN"
 "http://www.w3.org/TR/2001/REC-SVG-20010904/DTD/svg10.dtd">
<svg version="1.0" xmlns="http://www.w3.org/2000/svg"
 width="174.000000pt" height="167.000000pt" viewBox="0 0 174.000000 167.000000"
 preserveAspectRatio="xMidYMid meet">

<g transform="translate(0.000000,167.000000) scale(0.100000,-0.100000)"
fill="#0000FF" stroke="none">
<path d="M725 1608 c-72 -13 -75 -19 -75 -113 l0 -82 -52 -24 c-28 -13 -72
-39 -97 -56 l-45 -32 -46 26 c-25 14 -54 32 -65 40 -33 22 -52 15 -99 -39 -72
-83 -140 -234 -119 -264 5 -6 37 -29 71 -50 l64 -39 1 -111 2 -111 -68 -39
c-40 -23 -70 -47 -73 -60 -16 -61 130 -304 183 -304 10 0 47 17 83 38 l64 37
65 -42 c35 -24 79 -48 98 -54 l33 -11 0 -83 c0 -90 6 -101 56 -111 l30 -6 12
163 c6 89 14 164 17 167 15 16 17 -22 6 -159 -7 -83 -9 -154 -6 -158 8 -7 141
-8 148 -1 3 3 -3 111 -14 240 -10 129 -19 243 -19 252 0 11 20 29 50 46 l51
29 -61 74 c-34 41 -67 80 -74 87 -10 10 -26 -4 -80 -74 -37 -47 -66 -87 -64
-88 2 -1 25 -15 51 -30 l49 -28 -7 -50 c-4 -28 -7 -68 -7 -90 1 -25 -4 -38
-13 -38 -10 0 -12 18 -8 84 l6 83 -27 7 c-42 10 -111 81 -136 138 -72 167 66
352 248 335 70 -6 109 -24 156 -73 50 -51 69 -109 64 -188 -5 -86 -43 -149
-118 -193 l-53 -33 2 -64 c1 -36 4 -78 6 -93 2 -15 9 -98 15 -183 7 -85 14
-157 15 -158 2 -2 18 -1 35 3 39 9 50 35 50 124 l0 68 52 24 c28 13 69 36 90
51 21 16 42 28 47 28 6 0 37 -16 70 -35 32 -19 69 -35 80 -35 43 0 167 196
178 281 5 36 5 37 -66 78 l-71 42 0 113 0 114 68 39 c65 37 67 40 66 77 -3 77
-132 286 -178 286 -8 0 -45 -17 -81 -39 l-67 -38 -51 35 c-29 19 -71 43 -94
54 l-43 19 0 73 c0 95 -13 113 -95 126 -72 12 -142 11 -210 -2z"/>
</g>
</svg>
